# xmcd
#
# Track frame offsets:
#	150
#	16392
#	34202
#	48505
#	63625
#	82525
#	99477
#	117935
#	132295
#	147480
#	167990
#	192497
#	222712
#	257465
#
# Disc length: 3654 seconds
#
# Revision: 1
# Processed by: cddbd v1.5.2PL0 Copyright (c) Steve Scherf et al.
# Submitted via: EZCDAudioConverter 1.3.4.1
#
DISCID=cd0e440e
DTITLE=Belinda Carlisle - Belinda
DYEAR=1986
DGENRE=
TTITLE0=Mad About You
TTITLE1=I Need A Disguise
TTITLE2=Since You've Gone
TTITLE3=I Feel The Magic
TTITLE4=I Never Wanted A Rich Man
TTITLE5=Band Of Gold
TTITLE6=Gotta Get To You
TTITLE7=From The Heart
TTITLE8=Shot In The Dark
TTITLE9=Stuff And Nonsense
TTITLE10=Mad About You [Extended Version]
TTITLE11=Band Of Gold [Extended Mix]
TTITLE12=Band Of Gold [Dub Mix]
TTITLE13=Band Of Gold [Single Mix]
EXTD=
EXTT0=
EXTT1=
EXTT2=
EXTT3=
EXTT4=
EXTT5=
EXTT6=
EXTT7=
EXTT8=
EXTT9=
EXTT10=
EXTT11=
EXTT12=
EXTT13=
PLAYORDER=
